<svg xmlns="http://www.w3.org/2000/svg" viewBox="0 0 192 192"><defs><style>.cls-1{fill:none;}.cls-2{fill:#fff;}.cls-3{fill:#ffb71b;}</style></defs><g id="Layer_2" data-name="Layer 2"><g id="Codebridge-logos"><rect class="cls-1" width="192" height="192"/><path class="cls-2" d="M166.19,68.21a20.67,20.67,0,0,1,6.42,7.13A19.72,19.72,0,0,1,175,85a19.23,19.23,0,0,1-1.63,7.9,20.44,20.44,0,0,1-4.4,6.42,20.93,20.93,0,0,1-6.47,4.31,19.85,19.85,0,0,1-7.89,1.58H123.77V37.28h29.88a17.55,17.55,0,0,1,7.18,1.48,19.8,19.8,0,0,1,5.89,4,18.14,18.14,0,0,1,5.41,13A15.81,15.81,0,0,1,170.55,63,15.17,15.17,0,0,1,166.19,68.21Zm-27.86-5.46h15.32a6.21,6.21,0,0,0,6.22-6.22,5.69,5.69,0,0,0-1.82-4.31,6.16,6.16,0,0,0-4.4-1.73H138.33ZM154.61,92a6.12,6.12,0,0,0,4.88-2.42,8.63,8.63,0,0,0,2-5.67,8.18,8.18,0,0,0-2-5.61A6.26,6.26,0,0,0,154.61,76H138.33V92Z"/><path class="cls-2" d="M50,91.72a20.61,20.61,0,0,0,9-2.11,29.63,29.63,0,0,0,8.9-7.08l9.38,8.9a38.81,38.81,0,0,1-12.87,11,32.13,32.13,0,0,1-14.89,3.74,30,30,0,0,1-12.93-2.83,33.54,33.54,0,0,1-10.49-7.61,35.82,35.82,0,0,1-7-11.15A36.3,36.3,0,0,1,16.57,71a34.64,34.64,0,0,1,2.63-13.5,36.6,36.6,0,0,1,7.13-11.11A33.34,33.34,0,0,1,37,38.87a31.23,31.23,0,0,1,13-2.78,31.75,31.75,0,0,1,12.21,2.39,35.55,35.55,0,0,1,11.35,8L65.11,56.68a23.14,23.14,0,0,0-7.61-5A22.05,22.05,0,0,0,50,50.36,17.45,17.45,0,0,0,42.56,52a19.62,19.62,0,0,0-6.08,4.41A20.58,20.58,0,0,0,32.41,63,21.93,21.93,0,0,0,30.93,71a21.56,21.56,0,0,0,1.48,8,21.26,21.26,0,0,0,4.07,6.56,19.11,19.11,0,0,0,6.08,4.45A17.32,17.32,0,0,0,50,91.72Z"/><polygon class="cls-3" points="86.79 37.3 102.56 37.3 74.16 105.17 58.39 105.17 86.79 37.3"/><polygon class="cls-3" points="123.77 37.28 139.54 37.28 111.12 105.17 95.36 105.17 123.77 37.28"/><path class="cls-3" d="M157.68,147.16a25.89,25.89,0,0,1,.65-6.91c.32-1.47.79-2.91,1.23-4.35a47.36,47.36,0,0,1,2.34-6.1q1.57-3.41,3.18-6.79a1.36,1.36,0,0,0,.09-1.1c0-.12-.09-.17-.22-.16a1.77,1.77,0,0,0-1.25.46c-1,1-2.13,1.94-3.15,3a40.6,40.6,0,0,0-3.28,3.66c-2.77,3.46-5.19,7.16-7.61,10.86-1.1,1.69-2.16,3.41-3.25,5.1a5.69,5.69,0,0,1-2,2,2.94,2.94,0,0,1-2.3.23,1.74,1.74,0,0,1-1-.78,2.82,2.82,0,0,1-.41-2,.54.54,0,0,0,0-.18c0-.9-.06-1.81-.06-2.72,0-1.09,0-2.19,0-3.28s.07-2,.14-3a20.93,20.93,0,0,1,.48-3.24c0-.12,0-.25.06-.38l-.31.2c-2.41,1.89-4.81,3.81-7.24,5.67-3.11,2.39-6.18,4.81-9.2,7.3-.65.54-1.31,1.08-2,1.61a6.09,6.09,0,0,1-2.59,1.23,3.28,3.28,0,0,1-1.78-.15,8,8,0,0,1-3.39-2.41,2.57,2.57,0,0,1-.5-2.27A38.39,38.39,0,0,1,116,137c.31-.85.66-1.69,1-2.54a.9.9,0,0,0,0-.16l-.14.07-2.72,2.16-4.24,3.35q-4.62,3.66-9.23,7.33a8.78,8.78,0,0,1-2.53,1.59,5.42,5.42,0,0,1-4.13,0,2.54,2.54,0,0,1-1.61-2.3,8,8,0,0,1,.52-3.29,22.82,22.82,0,0,1,1.72-3.72l.45-.8c.07-.12,0-.17-.1-.16a2.5,2.5,0,0,0-1.2.38c-.81.48-1.61,1-2.41,1.49s-1.79,1.14-2.69,1.69a30.44,30.44,0,0,0-3.24,2.28c-1.19.95-2.34,1.95-3.55,2.86s-2.35,1.74-3.59,2.52a2.44,2.44,0,0,1-3.48-.73,6.47,6.47,0,0,1-1.1-2.84,6.67,6.67,0,0,1,.2-2.48,19.67,19.67,0,0,1,1.32-3.47,76,76,0,0,1,4.17-7.55c.91-1.49,1.88-2.94,2.83-4.4q2.17-3.33,4.37-6.66a.26.26,0,0,0,0-.09.29.29,0,0,0,0-.1.34.34,0,0,0-.1,0l-2.28.23-3.45.33-2.89.29c-.66.07-1.33.11-2,.18a7,7,0,0,0-.8.13,1.16,1.16,0,0,0-1,.92,11.71,11.71,0,0,0-.23,1.18c-.14.9-.23,1.82-.39,2.72A20,20,0,0,1,72,132.3c-.87,1.83-1.81,3.63-2.83,5.38a28.33,28.33,0,0,1-1.84,2.73c-1.24,1.66-2.52,3.29-3.8,4.93-.79,1-1.61,2-2.38,3A6.89,6.89,0,0,1,59,150.3a4.42,4.42,0,0,1-2.76.58,2.7,2.7,0,0,1-1.4-.62,5.33,5.33,0,0,1-1.53-2,6.59,6.59,0,0,1-.71-2.68c0-.23,0-.47,0-.71s0-.7,0-1a11.65,11.65,0,0,1,.6-3.79,21.56,21.56,0,0,1,1.52-3.61c.61-1.25,1.17-2.52,1.72-3.8a44.65,44.65,0,0,1,2.38-4.74c1.18-2.08,2.39-4.14,3.75-6.12a20.73,20.73,0,0,1,3.5-3.92,4.21,4.21,0,0,1,2.6-1.06,4.3,4.3,0,0,1,1.66.28l1.22.38a2.62,2.62,0,0,1,1.48,1,.59.59,0,0,0,.5.26c.13,0,.26,0,.39,0,2.2-.12,4.41-.22,6.61-.36,1.54-.1,3.08-.26,4.61-.39L87,117.8c.82-.07,1.64-.13,2.46-.22a1.26,1.26,0,0,0,.6-.27.87.87,0,0,1,.79-.15,6.25,6.25,0,0,1,2.25,1.08l1.05.78c.22.17.25.24.12.47a5.5,5.5,0,0,1-.38.56c-1.14,1.59-2.27,3.18-3.43,4.76-.83,1.15-1.69,2.27-2.54,3.4-.61.81-1.23,1.61-1.86,2.41l-1.42,1.76a25.4,25.4,0,0,0-3.31,5.09,9.25,9.25,0,0,1-1.07,1.82,1.65,1.65,0,0,0-.35,1.3c0,.29,0,.3.28.15L82.75,139l5.72-4A48.24,48.24,0,0,1,93.71,132a31.84,31.84,0,0,0,4.67-2.79,18.13,18.13,0,0,0,3.37-3.41,23.47,23.47,0,0,0,2-3,18.68,18.68,0,0,1,2.55-3.52,4.67,4.67,0,0,1,2-1.36,7.8,7.8,0,0,1,1.65-.34c.55,0,1.09,0,1.63-.08a1.84,1.84,0,0,1,1.07.29.72.72,0,0,1,.32.64,2.08,2.08,0,0,1-.13.79,23.46,23.46,0,0,1-3,5.44c-1,1.31-2,2.58-3,3.89-.81,1.06-1.57,2.15-2.36,3.23-1.4,1.88-2.63,3.88-3.95,5.82-.23.33-.46.66-.66,1a2,2,0,0,0-.35,1.17.76.76,0,0,0,1.11.73,8.88,8.88,0,0,0,1-.48,20,20,0,0,0,2.92-2c1.67-1.33,3.38-2.61,5.14-3.82s3.43-2.49,5.13-3.77c1.94-1.46,3.9-2.89,5.86-4.34.14-.1.27-.22.42-.32a1.82,1.82,0,0,0,.53-.64c1-1.84,5.15-9.5,5.63-10.26a28.05,28.05,0,0,0,2.45-4.25,6.46,6.46,0,0,0,.31-.94.78.78,0,0,0-.93-1.06,5,5,0,0,0-1.44.47,5.09,5.09,0,0,1-1.63.42c-.66.07-1.32.22-2,.34a5.86,5.86,0,0,1-1.82.15,1.28,1.28,0,0,1-1.17-1.07,2.65,2.65,0,0,1,.87-2.52,2.07,2.07,0,0,1,1-.44l2.33-.43,2.25-.43a15.77,15.77,0,0,0,2.16-.51A13.74,13.74,0,0,0,134.1,102a6.47,6.47,0,0,0,1.46-1.86c.49-.87.95-1.76,1.42-2.65.58-1.09,1.16-2.19,1.73-3.29.13-.26.25-.53.36-.8a3.69,3.69,0,0,1,.91-1.29,1.68,1.68,0,0,1,1.7-.43,4.71,4.71,0,0,1,1.47.82,2.92,2.92,0,0,1,.89,1,2.61,2.61,0,0,1,.19,2.15,6.29,6.29,0,0,1-1,1.86c-.31.41-.61.81-.9,1.23a3.48,3.48,0,0,0-.62,1.37,1.4,1.4,0,0,0,.79,1.58,2.66,2.66,0,0,0,1.3.28c.78,0,1.56-.06,2.33,0a9.29,9.29,0,0,1,4.6,1.06,4.41,4.41,0,0,1,.75.53.54.54,0,0,1,.15.75c-.31.63-.61,1.25-.95,1.86a3.76,3.76,0,0,1-.57.8,1.42,1.42,0,0,1-1.23.48c-.72,0-1.44,0-2.16,0-1.9-.06-3.79.06-5.69.18a11.4,11.4,0,0,0-1.74.25,4,4,0,0,0-1.89,1.14,19.82,19.82,0,0,0-2,2.43c-.69.93-1.42,1.82-2.13,2.73s-5.13,10.07-5.55,10.94q-1,2.18-2,4.39c-.54,1.28-1,2.58-1.53,3.88-.69,1.77-1.39,3.53-2.08,5.3-.07.17-.16.34-.24.51s-.05.39.23.47a.81.81,0,0,0,.74-.09,10.84,10.84,0,0,0,1-.64c3-2.39,6.07-4.73,9.17-7s6.36-4.57,9.55-6.85c.56-.4,1.13-.8,1.71-1.19a1.31,1.31,0,0,0,.46-.56c.83-2,1.72-3.94,2.71-5.84.27-.5.55-1,.85-1.47,2-3.38,4.93-9.38,5.76-11,2.24-5.69,10.83-8.12,3.91,4.22-1.6,2.88-3.42,6.33-4,7.24-.18.31-.37.63-.52,1-.56,1.27-1.11,2.55-1.66,3.83a31.52,31.52,0,0,1-2.21,4.38c-.8,1.28-1.55,2.59-2.3,3.9a5.17,5.17,0,0,0-.63,1.79,1.22,1.22,0,0,0,.11.86.55.55,0,0,0,.81.25,1.93,1.93,0,0,0,.73-.66c.61-.91,1.25-1.8,1.81-2.74a20.83,20.83,0,0,1,2.1-2.84c1-1.16,2.06-2.33,3.13-3.47,1.37-1.45,2.75-2.88,4.16-4.29s3.1-3,4.66-4.49c.57-.54,1.16-1.07,1.76-1.59a4.33,4.33,0,0,1,2.94-1.11,6,6,0,0,1,2.72.68,9.91,9.91,0,0,1,2,1.37,2.24,2.24,0,0,1,.67,2.38,19,19,0,0,1-.8,2.3c-.65,1.72-1.29,3.44-1.95,5.16a22.4,22.4,0,0,1-2,3.92c-.88,1.42-1.69,2.89-2.44,4.39a40.93,40.93,0,0,0-2.18,5.1c-.34,1-.63,2-.93,3-.83,2.74-1.64,5.49-2.48,8.23-.24.8-.52,1.59-.82,2.37a5,5,0,0,1-.51.89.54.54,0,0,1-.31.2,1.06,1.06,0,0,1-1.27-.46,4.23,4.23,0,0,1-.65-1.74C157.8,148.46,157.75,147.81,157.68,147.16ZM69.43,124.93a1.79,1.79,0,0,0-.4-1,.16.16,0,0,0-.24-.07,2.26,2.26,0,0,0-.84.56l-1,1.15a33.73,33.73,0,0,0-3.27,4.52c-1.12,1.85-2.08,3.78-3,5.73-.57,1.2-1.12,2.41-1.67,3.63a6.78,6.78,0,0,0-.5,1.39,1.16,1.16,0,0,0,.34,1.12s.16.08.2.05a4.48,4.48,0,0,0,1.29-.86c.65-.76,1.31-1.51,1.94-2.29a38.42,38.42,0,0,0,3.47-5c.77-1.32,1.48-2.69,2.19-4a18.07,18.07,0,0,0,.8-1.73,16.31,16.31,0,0,0,.69-2.92A2.09,2.09,0,0,0,69.43,124.93Z"/><path class="cls-3" d="M26.59,171.17a4.84,4.84,0,0,1-3.34-.75,3.61,3.61,0,0,1-1.35-1.69,3,3,0,0,1-.1-1.22c0-.33,0-.66,0-1a1.34,1.34,0,0,1,.88-1.38,11.28,11.28,0,0,0,1.17-.66c1.2-.68,2.4-1.35,3.59-2a9.38,9.38,0,0,0,3.93-4.24c.42-.9,1.67-3.83,3-6.56.73-1.48,1.48-2.95,2.15-4.45.38-.84.62-1.73.94-2.59a6.08,6.08,0,0,1,.44-.84c.11-.2.26-.37.35-.57a.63.63,0,0,0-.37-.84.46.46,0,0,0-.36.05,10.4,10.4,0,0,0-2,1.25c-1.25,1.06-2.42,2.2-3.62,3.32a34.88,34.88,0,0,1-3.77,3.1,10.54,10.54,0,0,1-3.22,1.51,4.53,4.53,0,0,1-3.67-.27,4.86,4.86,0,0,1-1.84-2.05A4.14,4.14,0,0,1,19,147.6a5,5,0,0,0-.21-1.21,2.3,2.3,0,0,1,0-1,6.8,6.8,0,0,1,.62-1.81c.24-.52.47-1,.74-1.56a13.48,13.48,0,0,0,1-2.62,16.3,16.3,0,0,1,1.59-3.66c.91-1.59,1.81-3.2,2.76-4.77.65-1.05,8.21-12.08,8.91-13.1.52-.76,1.08-1.49,1.63-2.23a2.34,2.34,0,0,1,1.16-.89,1.29,1.29,0,0,1,1.12.11,4.1,4.1,0,0,1,1.53,1.59,2.74,2.74,0,0,1,0,2.58,14.6,14.6,0,0,1-1.09,1.78c-.87,1.2-8.56,12.45-9.29,13.74A47.9,47.9,0,0,0,27,139.33c-.57,1.32-1.11,2.65-1.63,4a11.57,11.57,0,0,0-.39,1.54,1.34,1.34,0,0,0,0,.35.17.17,0,0,0,.07.13,1.14,1.14,0,0,0,.75.07,3.6,3.6,0,0,0,1.18-.77c1.4-1.35,2.79-2.71,4.2-4.06a32,32,0,0,1,3.53-3c.62-.43,1.25-.85,1.9-1.23a25.05,25.05,0,0,0,4.59-3.47c1.52-1.46,10.24-17,11.65-18.61a3.85,3.85,0,0,1,3.08-1.31,4.45,4.45,0,0,1,1.73.31,3.58,3.58,0,0,1,1.86,1.85,2,2,0,0,1-.24,2.08,10.76,10.76,0,0,1-.84,1c-.42.46-.86.9-1.29,1.36-1.12,1.18-9.15,16.63-9.82,18.1-.85,1.83-1.73,3.64-2.61,5.46-2,4.1-8.6,18-10.07,20.75a26.57,26.57,0,0,1-3,4.72A7.3,7.3,0,0,1,27.63,171Z"/></g></g></svg>