<svg xmlns="http://www.w3.org/2000/svg" viewBox="0 0 909.82 1019.64"><defs><style>.cls-1{fill:#fcb01f;}</style></defs><title>finger-snap</title><g id="Layer_2" data-name="Layer 2"><g id="Layer_1-2" data-name="Layer 1"><path class="cls-1" d="M886.9,557.8a78.25,78.25,0,0,0-63.4-22.52,80.15,80.15,0,0,0-88-97.47,82.14,82.14,0,0,0-72-99l139-139a82,82,0,0,0-115.85-116L412.05,358.43c-18.64,18.64-41.11,31.55-65,37.35-17.91,4.35-36,4.4-50.55.28-14.38-22.37-27.88-40.68-30.8-44.6-29.61-40.41-56.89-81.54-88.7-130.88-32.71-50.66-74.06-72.44-113.46-59.73C53,164.24,43,170.42,32.92,179.73,15.06,196.26-1.28,214.81.08,238.5c1,18.15,11.48,34.43,27.29,59.07,9,13.95,20.09,31.32,31.94,53,7.11,13.05,12.46,26.58,18.13,40.91,2.24,5.68,4.57,11.55,7,17.43,7.36,17.61,16.71,40.94,23.81,65.21,11.72,40,5.36,78.49-1.36,119.2C102,622.65,97,653,98.89,684.74c2.37,40.18,13.66,80.92,33.55,121.08a395.84,395.84,0,0,0,75.49,104.3c57.84,57.84,129,95.64,200.5,106.42a271.53,271.53,0,0,0,40.28,3.1A226.09,226.09,0,0,0,508,1012c32.34-8.77,60.2-24.68,82.8-47.28L820.22,735.35h0l66.67-66.67A78.5,78.5,0,0,0,886.9,557.8ZM780.82,481.88a50.32,50.32,0,0,1,0,71.1l-4.79,4.8h0l-66.67,66.67h0l-4.81,4.81A50.28,50.28,0,1,1,633,558.64l.49-.48L671.6,520l38.15-38.15A50.32,50.32,0,0,1,780.82,481.88ZM655.39,368.35A51.94,51.94,0,0,1,692.12,457l-41.77,41.77L612.2,537h0l-3.6,3.61a51.94,51.94,0,0,1-73.46-73.46l35.35-35.36h0l48.18-48.18A51.59,51.59,0,0,1,655.39,368.35ZM569.63,943.54c-37.56,37.55-93.2,53-156.68,43.39-65.17-9.84-130.43-44.63-183.77-98q-8-8-15.37-16.27a171.06,171.06,0,0,0,46.47,6.6,152.45,152.45,0,0,0,25.42-2.11c38.61-6.55,69.21-28.22,88.49-62.66a12.48,12.48,0,1,0-21.35-12.93c-.16.25-.3.52-.44.79-15.68,28-39.53,44.92-70.88,50.24-36.89,6.26-75.64-5.26-99.85-21.42a350.73,350.73,0,0,1-22.31-38.59C141.27,756,131,719.18,128.87,683c-1.68-28.41,2.85-55.78,7.63-84.76,7-42.24,14.2-85.91.57-132.51-7.52-25.69-17.27-50-24.93-68.36-2.34-5.6-4.61-11.34-6.8-16.89C99.59,366,93.64,351,85.65,336.28c-12.36-22.66-23.82-40.53-33-54.89-12.77-19.91-22-34.3-22.59-44.58-.36-6.35,2.12-15.47,23.26-35,6.79-6.29,13.15-10.33,19.43-12.35,36.16-11.67,67.32,29.3,79,47.45,32.15,49.81,59.73,91.39,89.81,132.41h0l.07.09c15.41,20.7,56.86,80.6,63.42,108.77a15,15,0,1,0,29.22-6.8c-2.78-11.94-9.63-26.93-18-42.24A144.17,144.17,0,0,0,354.14,425c29.22-7.09,56.58-22.75,79.12-45.29L707.84,105.07a51.94,51.94,0,0,1,73.46,73.46L597.45,362.35l-83.54,83.53a81.91,81.91,0,0,0,75.44,138A80.23,80.23,0,0,0,686.82,672a78.3,78.3,0,0,0,22.52,63.37h0a78,78,0,0,0,46.11,22.36ZM865.69,647.48l-31.32,31.31h0L799,714.16a48.47,48.47,0,0,1-68.46,0h0a48.47,48.47,0,0,1,0-68.46L797.25,579a48.42,48.42,0,0,1,68.44,68.5Z"/><path class="cls-1" d="M273,168.45a15,15,0,0,0,22.36-20c-.35-.38-.71-.75-1.09-1.09l-75-75.78A15,15,0,1,0,198,92.68Z"/><path class="cls-1" d="M330.86,122.68a15,15,0,0,0,14.62,11.67,16.18,16.18,0,0,0,3.33-.37A15,15,0,0,0,360.12,116h0L336.54,12a15,15,0,1,0-29.4,6c0,.23.09.45.15.68Z"/><path class="cls-1" d="M413.46,133.57a15,15,0,0,0,19.09-9.22l35-100.73a15,15,0,0,0-28.34-9.86h0l-35,100.73A15,15,0,0,0,413.46,133.57Z"/><path class="cls-1" d="M468.54,167.42a15,15,0,0,0,21.09,2.26l83-66.94a15,15,0,1,0-18.81-23.39h0l-83,67A15,15,0,0,0,468.54,167.42Z"/></g></g></svg>