<svg xmlns="http://www.w3.org/2000/svg" viewBox="0 0 78.47 67.81"><defs><style>.cls-1{fill:#fcb01f;}</style></defs><g id="Layer_2" data-name="Layer 2"><g id="Layer_1-2" data-name="Layer 1"><path class="cls-1" d="M78.47,65.89V59.67a1.94,1.94,0,0,0-.56-1.36l-4.44-4.44a1.9,1.9,0,0,0-1.35-.56h-5.2V28.71h5.19A1.92,1.92,0,0,0,74,26.8V22.33a1.93,1.93,0,0,0-.9-1.64L40.25.28A1.87,1.87,0,0,0,39.16,0h0a1.94,1.94,0,0,0-.94.28L5.34,20.69a1.93,1.93,0,0,0-.9,1.63V26.8a1.92,1.92,0,0,0,1.92,1.91h5.19v24.6H6.12A1.91,1.91,0,0,0,5,53.87L.56,58.31A1.94,1.94,0,0,0,0,59.67v6.22a1.92,1.92,0,0,0,1.92,1.92h32.9a1.92,1.92,0,0,0,0-3.84h-31v-3.5l3.33-3.33H71.31l3.33,3.33V64h-31a1.92,1.92,0,1,0-.07,3.84H76.55A1.92,1.92,0,0,0,78.47,65.89Zm-70.2-41v-1.5l31-19.18,31,19.18v1.5ZM28.43,53.31h-13V28.71H28.43Zm17.77,0H32.26V28.71H46.2Zm16.89,0H50V28.71H63.09Z"/></g></g></svg>