<svg width="100" height="60" viewBox="0 0 100 60" fill="none" xmlns="http://www.w3.org/2000/svg">
<path d="M99.7503 26.7433L89.667 2.18026C89.3131 1.32703 88.6268 0.644444 87.7591 0.282213C86.8915 -0.0807922 85.9117 -0.0939773 85.0344 0.244981L77.2511 3.28409C76.4701 3.59048 75.8259 4.1567 75.4331 4.88273C75.0402 5.60874 74.9233 6.44647 75.103 7.24849C73.4814 8.10018 71.6562 8.5136 69.8151 8.44533L53.4982 6.74585H53.4989C49.9798 6.36734 46.4441 7.29114 43.5905 9.335L30.1 8.75325C28.2709 8.62759 26.4989 8.08076 24.9292 7.15693C25.0803 6.36575 24.9467 5.5482 24.5498 4.8424C24.153 4.13661 23.5183 3.58661 22.7533 3.28486L14.9705 0.24496C14.0933 -0.0939985 13.1135 -0.0808134 12.2459 0.282192C11.3782 0.644422 10.6927 1.32623 10.338 2.17947L0.252991 26.7425C-0.0961301 27.5981 -0.083405 28.5545 0.287985 29.4016C0.660173 30.2478 1.36082 30.9164 2.23722 31.2601L10.0214 34.3006C10.7348 34.5775 11.5213 34.6217 12.2625 34.427C13.0037 34.2315 13.6607 33.8088 14.1354 33.2201L20.4945 37.4202C19.6896 38.486 19.3127 39.8015 19.4343 41.1194C19.556 42.4372 20.1684 43.6658 21.1553 44.5741C22.1423 45.4816 23.4362 46.0052 24.7921 46.0471C24.8653 47.572 25.5993 48.9954 26.8121 49.9611C28.0241 50.9268 29.6012 51.3441 31.1481 51.1091C31.424 52.361 32.1493 53.4748 33.1936 54.2504C34.237 55.0261 35.5308 55.4124 36.8407 55.3402C37.0427 56.7302 37.7895 57.9892 38.9243 58.8531C40.0592 59.7164 41.4938 60.1175 42.9253 59.9701C44.3568 59.8227 45.6738 59.1401 46.5987 58.0643L47.8282 56.6037L50.3556 58.5142C52.0257 59.7552 54.239 60.0554 56.193 59.3061C58.1463 58.5568 59.557 56.8659 59.9119 54.8476C61.6138 55.2549 63.4126 54.9143 64.8347 53.9161C66.2559 52.917 67.1577 51.3611 67.3009 49.6577C68.8771 49.8943 70.4853 49.5166 71.7791 48.6075C73.073 47.6976 73.9486 46.3285 74.2167 44.7959C75.7611 45.1357 77.3812 44.8906 78.7467 44.1102C80.1129 43.3292 81.1238 42.0709 81.5739 40.5902C82.0249 39.1102 81.8817 37.5177 81.1731 36.1363L85.7427 33.012V33.0128C86.1913 33.6682 86.857 34.1538 87.6284 34.3888C88.3998 34.623 89.2309 34.592 89.9817 34.3004L97.7667 31.2599C98.6407 30.9139 99.3398 30.2453 99.7112 29.3991C100.083 28.5528 100.096 27.5987 99.7501 26.7424L99.7503 26.7433ZM53.1174 10.2015L69.4358 11.901C71.8359 12.0631 74.2353 11.5775 76.3714 10.497L84.2828 29.7668L78.7157 33.573C75.273 30.9908 70.5999 27.491 68.5799 25.9878L68.5791 25.9886C67.5595 25.2292 66.2703 24.9027 65.0003 25.0811C57.9055 25.9622 52.1636 21.8327 50.0061 20.0082V20.009C49.3739 19.487 48.5881 19.1752 47.7619 19.117C46.9356 19.0596 46.1117 19.2597 45.4094 19.6879L37.1401 24.7631C36.076 25.3883 34.6978 25.1075 33.9797 24.1201C33.2616 23.1319 33.4461 21.7706 34.4028 20.998L45.2504 12.4509C47.459 10.7057 50.2917 9.89509 53.1174 10.2015ZM11.3442 31.0751L3.56007 28.0352L13.645 3.47215L21.4284 6.51206C21.4204 6.53222 11.3459 31.0751 11.3459 31.0751H11.3442ZM22.9419 40.8424C22.8894 40.3328 23.0477 39.8247 23.3817 39.4299L27.3463 34.7184C28.0421 33.9001 29.2836 33.7814 30.129 34.4524C30.6014 34.8689 30.8582 35.4685 30.8304 36.089C30.8026 36.7088 30.4932 37.2843 29.9858 37.659L26.4317 41.8825C25.9172 42.4705 25.0948 42.7047 24.3369 42.479C23.579 42.2533 23.031 41.6103 22.9419 40.8424ZM29.0481 47.2913C28.5757 46.874 28.3188 46.2744 28.3466 45.6539C28.3745 45.0334 28.6838 44.4578 29.1912 44.0824L32.7445 39.8612C33.4388 39.0398 34.6842 38.9226 35.5264 39.599C36.3694 40.2762 36.4895 41.4909 35.7952 42.3131L31.8315 47.0229C31.1372 47.8444 29.8935 47.9646 29.0481 47.2913ZM35.2776 51.4434V51.4426C34.4386 50.7647 34.3169 49.5539 35.0048 48.7294L38.9694 44.0179C39.6621 43.1957 40.9075 43.0762 41.7513 43.7519C42.5951 44.4267 42.7175 45.6414 42.0265 46.4643L38.0611 51.1764H38.0603C37.3652 51.9955 36.123 52.1142 35.2776 51.4424L35.2776 51.4434ZM42.51 56.5574C41.7187 56.6217 40.9632 56.2215 40.5886 55.5381C40.2148 54.8556 40.2928 54.0202 40.7874 53.4144L44.7528 48.703V48.7038C45.0852 48.3066 45.5656 48.0553 46.0881 48.0049C46.6106 47.9537 47.1323 48.1081 47.5387 48.433C47.9443 48.758 48.2011 49.2273 48.2513 49.7369C48.3022 50.2465 48.1431 50.7554 47.8091 51.1502L43.8445 55.8617C43.5121 56.2572 43.0317 56.5077 42.51 56.5574ZM77.8265 40.3948H77.8273C77.3899 40.9711 76.7321 41.3512 76.0037 41.4474C75.2744 41.5428 74.5364 41.3473 73.9582 40.9044L71.9978 39.3073C71.966 39.2825 71.9366 39.2592 71.9055 39.2359C71.8682 39.2189 71.8523 39.1778 71.8165 39.163L67.0257 35.2544V35.2552C66.271 34.6393 65.1473 34.737 64.5158 35.4731C63.8852 36.2092 63.9854 37.3045 64.7401 37.9203C64.7998 38.0219 69.6384 41.8824 69.7068 41.9685C70.7828 42.7473 71.0086 44.2289 70.211 45.2791C69.4125 46.3286 67.8935 46.5488 66.8167 45.7709C65.6269 44.8587 61.7611 41.9268 60.7105 40.9804V40.9796C59.9606 40.3785 58.8551 40.4739 58.2253 41.1937C57.5946 41.9135 57.6709 42.9932 58.397 43.6216L62.9223 47.3928C63.8973 48.2375 64.0142 49.6833 63.1863 50.666C62.3585 51.6496 60.8817 51.8187 59.8429 51.05L55.7631 47.9078C55.6955 47.8683 55.624 47.8334 55.5508 47.8031C54.9472 47.4564 54.1893 47.4936 53.6238 47.8977C53.0584 48.3027 52.7936 48.9961 52.951 49.6624C53.017 50.5722 55.3082 51.876 55.8984 52.4408H55.8992C56.6651 53.3716 56.5951 54.7142 55.7354 55.5637C54.8765 56.4138 53.5006 56.5015 52.5359 55.7669L50.0896 53.9177H50.0904C51.1879 52.89 51.8074 51.4689 51.805 49.9842C51.8034 48.4996 51.1799 47.0802 50.0792 46.0547C48.9794 45.0293 47.4969 44.4864 45.9764 44.5523C45.78 43.1142 44.999 41.8142 43.8092 40.9439C42.6194 40.0736 41.1212 39.7067 39.6514 39.9254C39.389 38.7472 38.7265 37.6907 37.7706 36.926C36.8154 36.1612 35.6233 35.7339 34.3875 35.7121C34.3095 34.257 33.6327 32.8934 32.5106 31.9308C31.3884 30.9674 29.9164 30.4865 28.4261 30.5966C26.9357 30.7068 25.5536 31.3987 24.5929 32.5148L22.7438 34.7114L15.6205 30.0063L23.6592 10.4248H23.66C25.5822 11.4952 27.7343 12.1126 29.9443 12.2266L39.3509 12.6323L32.1671 18.2923C30.7666 19.4031 29.9571 21.0723 29.9665 22.833C29.976 24.593 30.8031 26.2544 32.2156 27.3505C33.189 28.0633 34.358 28.4775 35.5732 28.5403C36.7892 28.6032 37.9964 28.3115 39.0414 27.7026L47.2902 22.6399C47.4095 22.5584 47.5685 22.5608 47.6846 22.6453C50.1907 24.7645 56.9426 29.5798 65.4585 28.5279C65.7909 28.4752 66.1321 28.5528 66.4065 28.7436C68.5776 30.3577 73.7946 34.2656 77.2207 36.8353C78.3739 37.6676 78.6427 39.2429 77.8275 40.3948L77.8265 40.3948ZM88.6582 31.0759C88.6582 31.0759 78.5924 6.57044 78.5732 6.51285L86.3566 3.47295L96.4399 28.036L88.6582 31.0759Z" fill="#FCB01F"/>
</svg>
