<svg xmlns="http://www.w3.org/2000/svg" viewBox="0 0 79.66 58.05"><defs><style>.cls-1{fill:#fcb01f;}</style></defs><g id="Layer_2" data-name="Layer 2"><g id="Layer_1-2" data-name="Layer 1"><path class="cls-1" d="M79.66,9.37a5.57,5.57,0,1,0-9.11,4.26L56,24.48,52.13,10.93a5.57,5.57,0,1,0-3.94-.42L39.83,23.38,31.47,10.51a5.56,5.56,0,1,0-3.93.42L23.69,24.48,9.12,13.63a5.56,5.56,0,1,0-3.86,1.28,1.93,1.93,0,0,0,0,.34L9.74,42v9.3c0,6.11,21,6.76,30.09,6.76s30.1-.65,30.1-6.76V42L74.4,15.25a1.93,1.93,0,0,0,0-.34A5.55,5.55,0,0,0,79.66,9.37ZM50.71,4.2a1.37,1.37,0,1,1-1.37,1.37A1.37,1.37,0,0,1,50.71,4.2ZM29,4.2a1.37,1.37,0,1,1-1.38,1.37A1.37,1.37,0,0,1,29,4.2ZM23.63,29.65a2.1,2.1,0,0,0,3.27-1.1l3.43-12.1,7.74,11.92a2.09,2.09,0,0,0,3.52,0l7.74-11.92,3.43,12.1A2.1,2.1,0,0,0,56,29.65L69.41,19.7,66.14,39.24a2.26,2.26,0,0,0-.32.64c-1.63,1.17-10.4,3.16-26,3.16s-24.36-2-26-3.16a2.06,2.06,0,0,0-.31-.63L10.25,19.7ZM4.19,9.37a1.38,1.38,0,1,1,1.38,1.38A1.38,1.38,0,0,1,4.19,9.37ZM65.74,50.76c-1.83,1.18-10.57,3.1-25.91,3.1s-24.08-1.92-25.9-3.1V44.41c6.61,2.48,19.38,2.82,25.9,2.82s19.3-.34,25.91-2.82Zm8.35-40a1.38,1.38,0,1,1,1.38-1.38A1.38,1.38,0,0,1,74.09,10.75Z"/></g></g></svg>