<svg width="27" height="19" viewBox="0 0 27 19" fill="none" xmlns="http://www.w3.org/2000/svg">
<path d="M5.3871 18.7015C3.57557 18.7015 2.24711 18.2875 1.40172 17.4597C0.596594 16.5904 0.194031 15.5142 0.194031 14.231V12.9271C0.194031 11.7268 0.355056 10.5264 0.677107 9.32596C1.03941 8.08417 1.50236 6.90446 2.06595 5.78685C2.6698 4.66924 3.37428 3.63442 4.17941 2.68238C4.98454 1.68894 5.85005 0.819688 6.77595 0.0746155H12.3917C11.0633 1.31641 9.91595 2.57889 8.94979 3.86208C8.0239 5.14526 7.31941 6.57332 6.83633 8.14626C8.12454 8.39461 9.07056 8.95342 9.67441 9.82268C10.2783 10.6505 10.5802 11.6026 10.5802 12.6788V14.231C10.5802 15.5142 10.1575 16.5904 9.3121 17.4597C8.50697 18.2875 7.19864 18.7015 5.3871 18.7015ZM19.5775 18.7015C17.7659 18.7015 16.4375 18.2875 15.5921 17.4597C14.787 16.5904 14.3844 15.5142 14.3844 14.231V12.9271C14.3844 11.7268 14.5454 10.5264 14.8675 9.32596C15.2298 8.08417 15.6927 6.90446 16.2563 5.78685C16.8602 4.66924 17.5647 3.63442 18.3698 2.68238C19.1749 1.68894 20.0404 0.819688 20.9663 0.0746155H26.5821C25.2536 1.31641 24.1063 2.57889 23.1402 3.86208C22.2143 5.14526 21.5098 6.57332 21.0267 8.14626C22.3149 8.39461 23.2609 8.95342 23.8648 9.82268C24.4686 10.6505 24.7706 11.6026 24.7706 12.6788V14.231C24.7706 15.5142 24.3479 16.5904 23.5025 17.4597C22.6973 18.2875 21.389 18.7015 19.5775 18.7015Z" fill="#221F1F"/>
</svg>
