<svg id="Codebridge-logos" xmlns="http://www.w3.org/2000/svg" viewBox="0 0 651.79 138.93"><defs><style>.cls-1{fill:#ffb71b;}.cls-2{fill:#231f20;}</style></defs><title>codebridge-youth-logo-horizontal-large</title><path class="cls-1" d="M602.65,91.67a31,31,0,0,1,.82-8.42c.39-1.8,1-3.55,1.51-5.31a56.17,56.17,0,0,1,2.87-7.43c1.28-2.77,2.59-5.52,3.9-8.27a1.69,1.69,0,0,0,.12-1.34c-.06-.15-.12-.2-.27-.2a2.21,2.21,0,0,0-1.54.56c-1.27,1.21-2.59,2.36-3.85,3.59a51.29,51.29,0,0,0-4,4.45c-3.39,4.21-6.35,8.71-9.31,13.22-1.35,2.06-2.64,4.15-4,6.21a7.07,7.07,0,0,1-2.43,2.4,3.52,3.52,0,0,1-2.8.26,2,2,0,0,1-1.18-1A3.47,3.47,0,0,1,582,88a1.7,1.7,0,0,0,0-.22c0-1.11-.07-2.21-.07-3.32,0-1.33,0-2.67,0-4s.09-2.47.18-3.7a25.25,25.25,0,0,1,.6-4c0-.15,0-.3.08-.46a3.52,3.52,0,0,0-.38.24c-3,2.3-5.88,4.63-8.85,6.9q-5.7,4.33-11.24,8.87c-.8.66-1.61,1.31-2.42,2a7.38,7.38,0,0,1-3.17,1.5,4,4,0,0,1-2.16-.2,9.58,9.58,0,0,1-4.13-2.94,3.1,3.1,0,0,1-.6-2.77,46.9,46.9,0,0,1,1.92-6.79c.39-1,.81-2.06,1.22-3.09a1.18,1.18,0,0,0,0-.2.91.91,0,0,0-.17.09c-1.11.87-2.22,1.74-3.32,2.62-1.73,1.36-3.46,2.71-5.19,4.08q-5.64,4.44-11.27,8.91a11.2,11.2,0,0,1-3.1,1.93,6.62,6.62,0,0,1-5,0,3.12,3.12,0,0,1-2-2.81,9.78,9.78,0,0,1,.65-4,28.76,28.76,0,0,1,2.1-4.54l.56-1c.08-.15,0-.2-.12-.2a3.11,3.11,0,0,0-1.47.47c-1,.58-2,1.2-2.94,1.8s-2.18,1.39-3.29,2.05A37.85,37.85,0,0,0,514.57,88c-1.46,1.15-2.86,2.37-4.34,3.48s-2.88,2.12-4.39,3.06a3,3,0,0,1-4.24-.91,7.64,7.64,0,0,1-1.33-3.46,8.15,8.15,0,0,1,.25-3A23.25,23.25,0,0,1,502.14,83a90.64,90.64,0,0,1,5.11-9.19c1.11-1.81,2.3-3.58,3.47-5.36,1.77-2.7,3.56-5.4,5.34-8.1l.07-.11,0-.12a.25.25,0,0,0-.12,0l-2.79.28c-1.4.13-2.8.25-4.2.39l-3.52.34-2.45.21c-.33,0-.65.09-1,.16a1.43,1.43,0,0,0-1.18,1.12,13.89,13.89,0,0,0-.28,1.43c-.17,1.11-.28,2.22-.49,3.32a24.13,24.13,0,0,1-2,6c-1.06,2.23-2.21,4.42-3.47,6.56a35.09,35.09,0,0,1-2.24,3.32c-1.52,2-3.09,4-4.65,6-1,1.23-2,2.43-2.91,3.69a8.45,8.45,0,0,1-2.61,2.34,5.46,5.46,0,0,1-3.36.7,3.37,3.37,0,0,1-1.71-.76,6.65,6.65,0,0,1-1.87-2.4,8.26,8.26,0,0,1-.85-3.27c0-.28,0-.57,0-.86s0-.86,0-1.28a14.51,14.51,0,0,1,.74-4.62,27.42,27.42,0,0,1,1.87-4.4c.76-1.52,1.43-3.07,2.11-4.63a56.64,56.64,0,0,1,2.91-5.77c1.45-2.54,2.94-5.05,4.6-7.45a26,26,0,0,1,4.28-4.78,5.13,5.13,0,0,1,3.18-1.28,5.61,5.61,0,0,1,2,.34c.49.17,1,.33,1.48.48a3.15,3.15,0,0,1,1.8,1.18.73.73,0,0,0,.62.32h.47c2.69-.14,5.38-.25,8.06-.42,1.88-.12,3.75-.3,5.63-.45l2.23-.2c1-.08,2-.14,3-.25a1.61,1.61,0,0,0,.73-.33,1,1,0,0,1,1-.18A7.57,7.57,0,0,1,524,56.2l1.28,1c.26.2.3.29.14.57a6.24,6.24,0,0,1-.46.68c-1.4,1.93-2.79,3.88-4.2,5.8-1,1.39-2.07,2.76-3.11,4.13-.75,1-1.51,2-2.28,2.93-.57.73-1.16,1.43-1.74,2.15a31.73,31.73,0,0,0-4.05,6.19,10.8,10.8,0,0,1-1.31,2.22,2,2,0,0,0-.43,1.58c.05.35.06.37.34.18,1.05-.69,2.09-1.37,3.13-2.08,2.33-1.6,4.65-3.23,7-4.83a58.34,58.34,0,0,1,6.4-3.73,40.11,40.11,0,0,0,5.71-3.39,22.13,22.13,0,0,0,4.11-4.15A29.29,29.29,0,0,0,537,61.7a21.82,21.82,0,0,1,3.12-4.28,5.6,5.6,0,0,1,2.43-1.66,8.73,8.73,0,0,1,2-.41l2-.09a2.24,2.24,0,0,1,1.31.36.89.89,0,0,1,.39.78,2.63,2.63,0,0,1-.17,1A28.41,28.41,0,0,1,544.35,64c-1.2,1.59-2.46,3.14-3.67,4.73-1,1.3-1.91,2.63-2.88,3.93-1.71,2.3-3.22,4.73-4.84,7.09-.27.41-.56.81-.81,1.23a2.44,2.44,0,0,0-.42,1.42.92.92,0,0,0,1.34.89,8.9,8.9,0,0,0,1.2-.59,24.75,24.75,0,0,0,3.57-2.4c2-1.62,4.13-3.18,6.28-4.65s4.19-3,6.27-4.58c2.37-1.78,4.76-3.52,7.15-5.27.17-.13.33-.28.51-.4a2.08,2.08,0,0,0,.66-.78C560,62.36,565,53,565.61,52.12a33.9,33.9,0,0,0,3-5.19,7.66,7.66,0,0,0,.39-1.14,1,1,0,0,0-1.13-1.29,6.13,6.13,0,0,0-1.76.56,6.15,6.15,0,0,1-2,.51c-.81.08-1.61.26-2.42.41a6.89,6.89,0,0,1-2.22.17,1.55,1.55,0,0,1-1.42-1.3,3.24,3.24,0,0,1,1.08-3.07,2.47,2.47,0,0,1,1.25-.54l2.83-.52,2.75-.51a19.84,19.84,0,0,0,2.64-.62,16.71,16.71,0,0,0,5.44-3,7.85,7.85,0,0,0,1.78-2.26c.6-1.07,1.17-2.15,1.74-3.23q1.07-2,2.12-4c.16-.32.3-.65.45-1a4.49,4.49,0,0,1,1.11-1.57,2,2,0,0,1,2.07-.52,5.75,5.75,0,0,1,1.79,1,3.62,3.62,0,0,1,1.09,1.21,3.2,3.2,0,0,1,.22,2.62,7.67,7.67,0,0,1-1.22,2.27c-.37.49-.75,1-1.1,1.49a4,4,0,0,0-.75,1.67,1.68,1.68,0,0,0,1,1.93,3.32,3.32,0,0,0,1.58.35c.94,0,1.89-.07,2.84-.05a11.35,11.35,0,0,1,5.6,1.31,5.4,5.4,0,0,1,.92.64.67.67,0,0,1,.17.93c-.37.76-.74,1.52-1.15,2.26a5.69,5.69,0,0,1-.71,1,1.76,1.76,0,0,1-1.5.58c-.87-.06-1.75,0-2.63-.07-2.31-.08-4.63,0-6.94.2a15.38,15.38,0,0,0-2.13.3A4.8,4.8,0,0,0,578.06,45,25.32,25.32,0,0,0,575.54,48c-.84,1.13-1.73,2.23-2.6,3.34s-6.29,12.25-6.8,13.31q-1.26,2.66-2.41,5.35c-.66,1.56-1.26,3.15-1.88,4.73l-2.55,6.45c-.08.22-.2.42-.29.63s-.06.47.27.57a1,1,0,0,0,.91-.1c.39-.26.82-.49,1.19-.78q5.5-4.36,11.2-8.5c3.87-2.8,7.77-5.55,11.66-8.32.69-.49,1.39-1,2.09-1.45a1.6,1.6,0,0,0,.57-.69c1-2.41,2.1-4.79,3.32-7.11.32-.61.68-1.2,1-1.79,2.5-4.11,6-11.42,7.07-13.34,2.75-6.93,13.23-9.87,4.75,5.16-2,3.51-4.19,7.71-4.83,8.81a11.1,11.1,0,0,0-.64,1.17c-.69,1.55-1.37,3.11-2,4.66a38.36,38.36,0,0,1-2.71,5.35c-1,1.55-1.9,3.15-2.81,4.74a6.13,6.13,0,0,0-.78,2.18,1.53,1.53,0,0,0,.13,1,.69.69,0,0,0,1,.31,2.37,2.37,0,0,0,.89-.8c.75-1.11,1.53-2.2,2.22-3.34a23.42,23.42,0,0,1,2.57-3.45c1.27-1.42,2.52-2.85,3.83-4.22,1.67-1.77,3.36-3.51,5.09-5.22s3.78-3.66,5.69-5.47c.7-.66,1.42-1.3,2.15-1.93a5.25,5.25,0,0,1,3.59-1.35,7.39,7.39,0,0,1,3.31.84,12.1,12.1,0,0,1,2.45,1.68,2.71,2.71,0,0,1,.8,2.9,21.1,21.1,0,0,1-1,2.8c-.79,2.1-1.58,4.2-2.39,6.29a27.68,27.68,0,0,1-2.48,4.77c-1.09,1.73-2.07,3.52-3,5.35a50.77,50.77,0,0,0-2.68,6.21c-.42,1.23-.77,2.47-1.15,3.71-1,3.34-2,6.68-3,10-.3,1-.64,1.94-1,2.89a5.5,5.5,0,0,1-.62,1.08.64.64,0,0,1-.39.25,1.28,1.28,0,0,1-1.54-.56,5.3,5.3,0,0,1-.79-2.12C602.79,93.25,602.74,92.46,602.65,91.67ZM495.1,64.29a2.2,2.2,0,0,0-.48-1.18.2.2,0,0,0-.29-.08,2.65,2.65,0,0,0-1,.68l-1.21,1.4a39.2,39.2,0,0,0-4,5.5,77.34,77.34,0,0,0-3.69,7c-.7,1.47-1.38,3-2.05,4.42a8.43,8.43,0,0,0-.62,1.7,1.41,1.41,0,0,0,.42,1.37c.05.05.19.1.24.07a5.61,5.61,0,0,0,1.57-1c.79-.93,1.6-1.85,2.38-2.79a47.73,47.73,0,0,0,4.25-6.12c.94-1.62,1.8-3.28,2.68-4.93a22.47,22.47,0,0,0,1-2.11,20.4,20.4,0,0,0,.85-3.55A1.51,1.51,0,0,0,495.1,64.29Z"/><path class="cls-1" d="M442.72,120.53a5.86,5.86,0,0,1-4.08-.92,4.43,4.43,0,0,1-1.64-2.06,3.74,3.74,0,0,1-.11-1.49c0-.41,0-.81,0-1.21a1.64,1.64,0,0,1,1.08-1.67c.5-.22.95-.53,1.43-.8,1.46-.83,2.93-1.65,4.39-2.49a11.4,11.4,0,0,0,4.8-5.15c.51-1.09,2-4.66,3.69-8,.89-1.8,1.81-3.6,2.64-5.43.46-1,.76-2.11,1.15-3.15a7.64,7.64,0,0,1,.54-1c.13-.24.32-.45.43-.7a.77.77,0,0,0-.45-1,.65.65,0,0,0-.45,0A13.15,13.15,0,0,0,453.71,87c-1.54,1.28-3,2.68-4.44,4a39.58,39.58,0,0,1-4.6,3.77,13.08,13.08,0,0,1-3.93,1.84,5.51,5.51,0,0,1-4.47-.35A5.85,5.85,0,0,1,434,93.79a4.85,4.85,0,0,1-.53-2,6.84,6.84,0,0,0-.25-1.48,2.7,2.7,0,0,1,0-1.23,8.49,8.49,0,0,1,.76-2.19c.3-.64.59-1.29.91-1.91a17.51,17.51,0,0,0,1.19-3.19A19.83,19.83,0,0,1,438,77.31c1.12-1.94,2.22-3.89,3.39-5.81.78-1.28,10-14.71,10.9-16,.64-.92,1.32-1.81,2-2.71a2.85,2.85,0,0,1,1.41-1.08,1.59,1.59,0,0,1,1.38.14,5,5,0,0,1,1.85,1.94A3.32,3.32,0,0,1,459,57a17.62,17.62,0,0,1-1.33,2.16c-1.07,1.47-10.47,15.15-11.37,16.73a60.41,60.41,0,0,0-3,5.83q-1,2.42-2,4.87a14.23,14.23,0,0,0-.48,1.87,1.57,1.57,0,0,0,0,.43c0,.05.05.15.09.16a1.44,1.44,0,0,0,.92.08,4.55,4.55,0,0,0,1.43-.94c1.71-1.64,3.41-3.29,5.13-4.93a40.14,40.14,0,0,1,4.32-3.7c.76-.52,1.53-1,2.32-1.49a30.41,30.41,0,0,0,5.61-4.22c1.86-1.78,12.53-20.75,14.26-22.66a4.73,4.73,0,0,1,3.76-1.58,5.41,5.41,0,0,1,2.11.38A4.32,4.32,0,0,1,483,52.24a2.44,2.44,0,0,1-.31,2.54,13.88,13.88,0,0,1-1,1.16c-.52.55-1.06,1.09-1.58,1.64-1.37,1.44-11.2,20.26-12,22-1,2.23-2.12,4.44-3.2,6.64-2.44,5-10.55,21.92-12.34,25.29a31.91,31.91,0,0,1-3.73,5.74,8.81,8.81,0,0,1-4.79,3C443.56,120.37,443.14,120.45,442.72,120.53Z"/><polygon class="cls-1" points="279.89 95.17 269.22 95.17 288.44 49.24 299.11 49.24 279.89 95.17"/><path class="cls-2" d="M343.24,63.3A21.74,21.74,0,0,0,339.35,56a18.33,18.33,0,0,0-6.4-4.92,20.35,20.35,0,0,0-8.82-1.82l-3.75,8.94h3.78a9.38,9.38,0,0,1,4.8,1.17,9.79,9.79,0,0,1,3.3,3.1,13.44,13.44,0,0,1,1.88,4.49,23.79,23.79,0,0,1,.58,5.33,22.24,22.24,0,0,1-.61,5.3A13.93,13.93,0,0,1,332.2,82a9.72,9.72,0,0,1-3.28,3.07,9.34,9.34,0,0,1-4.76,1.13H308.64l-3.73,8.94h21.23a15.42,15.42,0,0,0,7.33-1.78,18.33,18.33,0,0,0,5.84-4.89,23.47,23.47,0,0,0,3.86-7.29,28.1,28.1,0,0,0,1.4-9A29.44,29.44,0,0,0,343.24,63.3Z"/><path class="cls-2" d="M51.31,86.16a13.93,13.93,0,0,0,6.08-1.43,20.12,20.12,0,0,0,6-4.79l6.35,6a26.28,26.28,0,0,1-8.71,7.45A21.67,21.67,0,0,1,51,95.94,20.4,20.4,0,0,1,42.24,94a22.92,22.92,0,0,1-7.1-5.15,24.13,24.13,0,0,1-4.73-7.55,24.62,24.62,0,0,1-1.71-9.17A23.48,23.48,0,0,1,30.48,63a24.63,24.63,0,0,1,4.83-7.51A22.3,22.3,0,0,1,42.5,50.4a21.12,21.12,0,0,1,8.81-1.88,21.36,21.36,0,0,1,8.25,1.62,23.79,23.79,0,0,1,7.68,5.38l-5.7,6.93a15.47,15.47,0,0,0-5.15-3.4,14.71,14.71,0,0,0-5.08-.88,11.83,11.83,0,0,0-5,1.1,13.39,13.39,0,0,0-4.11,3,14.14,14.14,0,0,0-2.75,4.44,14.85,14.85,0,0,0-1,5.47,14.63,14.63,0,0,0,1,5.45A14.44,14.44,0,0,0,42.17,82a13,13,0,0,0,4.11,3A11.83,11.83,0,0,0,51.31,86.16Z"/><path class="cls-2" d="M93.82,48.52a21.16,21.16,0,0,1,8.81,1.88,22.86,22.86,0,0,1,7.22,5.12A24.52,24.52,0,0,1,114.71,63a23.48,23.48,0,0,1,1.78,9.13,23.78,23.78,0,0,1-1.78,9.14,24.38,24.38,0,0,1-4.86,7.58A23.44,23.44,0,0,1,102.63,94,21.27,21.27,0,0,1,85,94a23,23,0,0,1-7.19-5.15A24.67,24.67,0,0,1,73,81.3a23.78,23.78,0,0,1-1.78-9.14A23.48,23.48,0,0,1,73,63a24.81,24.81,0,0,1,4.83-7.51A22.41,22.41,0,0,1,85,50.4,21.12,21.12,0,0,1,93.82,48.52Zm0,37.64a11.55,11.55,0,0,0,5-1.1,13.09,13.09,0,0,0,4.07-3,14.42,14.42,0,0,0,2.74-4.43,14.63,14.63,0,0,0,1-5.45,14.85,14.85,0,0,0-1-5.47,14.5,14.5,0,0,0-2.74-4.47,13.06,13.06,0,0,0-4.07-3,11.8,11.8,0,0,0-10,0,13,13,0,0,0-4.08,3,14.5,14.5,0,0,0-2.74,4.47,14.84,14.84,0,0,0-1,5.47,14.63,14.63,0,0,0,1,5.45A14.42,14.42,0,0,0,84.8,82a13,13,0,0,0,4.08,3A11.5,11.5,0,0,0,93.85,86.16Z"/><path class="cls-2" d="M139.55,49.17A20.39,20.39,0,0,1,148.38,51a18.29,18.29,0,0,1,6.39,4.93,21.4,21.4,0,0,1,3.89,7.32A29.32,29.32,0,0,1,160,72.16a28.21,28.21,0,0,1-1.39,9,23.74,23.74,0,0,1-3.86,7.28,18.35,18.35,0,0,1-5.84,4.9,15.57,15.57,0,0,1-7.33,1.78H121V49.17Zm0,37A9.5,9.5,0,0,0,144.35,85,9.69,9.69,0,0,0,147.62,82a14,14,0,0,0,1.91-4.46,22.3,22.3,0,0,0,.62-5.3,23.72,23.72,0,0,0-.59-5.33,13.28,13.28,0,0,0-1.87-4.5,10,10,0,0,0-3.31-3.1,9.47,9.47,0,0,0-4.79-1.16h-8.75V86.16Z"/><path class="cls-2" d="M164.62,49.33h28.7v8.93H174.47v8.3h16.58V75.5H174.47V86.31h18.85v8.94h-28.7Z"/><path class="cls-2" d="M228.75,70.25a13.82,13.82,0,0,1,4.34,4.83,13.26,13.26,0,0,1,1.62,6.51,13.12,13.12,0,0,1-1.1,5.34,13.87,13.87,0,0,1-3,4.34,14.25,14.25,0,0,1-4.37,2.92,13.48,13.48,0,0,1-5.35,1.06H200.05V49.33h20.22a11.83,11.83,0,0,1,4.85,1,13.42,13.42,0,0,1,4,2.69,12.22,12.22,0,0,1,3.66,8.81,10.68,10.68,0,0,1-1.07,4.89A10.17,10.17,0,0,1,228.75,70.25ZM209.9,66.56h10.37a4.2,4.2,0,0,0,4.21-4.21,3.86,3.86,0,0,0-1.23-2.92,4.18,4.18,0,0,0-3-1.17H209.9Zm11,19.75a4.14,4.14,0,0,0,3.31-1.64,5.85,5.85,0,0,0,1.36-3.83,5.58,5.58,0,0,0-1.36-3.8,4.25,4.25,0,0,0-3.31-1.54h-11V86.31Z"/><path class="cls-2" d="M273.09,63a14,14,0,0,1-.61,4.18,14.1,14.1,0,0,1-1.72,3.63,12.89,12.89,0,0,1-2.66,2.91,14,14,0,0,1-3.36,2.05L273,86.27l-3.73,8.9h-.79L254.31,76.73H249.9V95.25h-9.85V49.33h19.83A12.7,12.7,0,0,1,265,50.39a13.3,13.3,0,0,1,4.21,2.92,14.14,14.14,0,0,1,2.82,4.34A13.77,13.77,0,0,1,273.09,63Zm-14.44,4.8a4.39,4.39,0,0,0,3.24-1.4,4.69,4.69,0,0,0,1.36-3.4,4.63,4.63,0,0,0-1.36-3.33,4.39,4.39,0,0,0-3.24-1.4H249.9v9.53Z"/><path class="cls-2" d="M372.07,69.18h17.36V86a27.56,27.56,0,0,1-8.62,7.45,20.95,20.95,0,0,1-18.72.62,23.07,23.07,0,0,1-7.19-5.15,24.76,24.76,0,0,1-4.83-7.55,24.41,24.41,0,0,1,0-18.3,24.81,24.81,0,0,1,4.83-7.51,22.52,22.52,0,0,1,7.19-5.12,21.12,21.12,0,0,1,8.81-1.88,21.53,21.53,0,0,1,8.32,1.62,23.28,23.28,0,0,1,7.62,5.38l-5.7,6.93a15.69,15.69,0,0,0-5.12-3.4,14.46,14.46,0,0,0-5-.88,12,12,0,0,0-5.09,1.1,13.15,13.15,0,0,0-4.11,3A14,14,0,0,0,359,66.75a14.84,14.84,0,0,0-1,5.47,14.63,14.63,0,0,0,1,5.45,14.28,14.28,0,0,0,2.76,4.43,12.81,12.81,0,0,0,4.11,3,12,12,0,0,0,5.09,1.1,13.53,13.53,0,0,0,4.76-.88,16.32,16.32,0,0,0,4.76-2.88v-5h-8.42Z"/><path class="cls-2" d="M394,49.23h28.7v8.94H403.81v8.29h16.58V75.4H403.81V86.22h18.85v8.94H394Z"/><polygon class="cls-1" points="304.91 95.16 294.24 95.16 313.45 49.24 324.12 49.24 304.91 95.16"/></svg>