<svg xmlns="http://www.w3.org/2000/svg" viewBox="0 0 65.83 66.03"><defs><style>.cls-1{fill:#fcb01f;}</style></defs><g id="Layer_2" data-name="Layer 2"><g id="Layer_1-2" data-name="Layer 1"><path class="cls-1" d="M31,66a1.84,1.84,0,0,0,1.35-.58l.58-.6.59.6a1.86,1.86,0,0,0,1.35.58H63.71a1.89,1.89,0,0,0,1.85-1.54,16.82,16.82,0,0,0,.27-3A16,16,0,0,0,61,49.79h0a16,16,0,0,0-7.47-4.36l-2.24-.56,2.1-.95A10.41,10.41,0,0,0,57.71,40a9.43,9.43,0,0,0,1.42-5,9.53,9.53,0,0,0-2.89-7,10.64,10.64,0,0,0-1.14-1,9.57,9.57,0,0,0-5.84-1.9,9.89,9.89,0,0,0-2.57.33l-.47.13-.33-.36-.53-.55a15.86,15.86,0,0,0-7.46-4.37l-2.23-.57,2.09-.95a9.68,9.68,0,0,0,2.86-2,9.51,9.51,0,0,0,2.89-6.94,9.62,9.62,0,0,0-2.9-7A9.46,9.46,0,0,0,33.68,0a9.8,9.8,0,0,0-9.83,9.83,9.53,9.53,0,0,0,2.91,7,9.92,9.92,0,0,0,2.85,2l2.1.95-2.24.56A16.07,16.07,0,0,0,22,24.64c-.3.31-.59.62-.86.93l-.38.43-.53-.21a10,10,0,0,0-3.68-.69A9.36,9.36,0,0,0,9.64,28a9.52,9.52,0,0,0-2.9,7,9.34,9.34,0,0,0,2.87,6.88,9.87,9.87,0,0,0,2.88,2.06l2.07,1-2.22.55a15.76,15.76,0,0,0-7.46,4.35A16,16,0,0,0,0,61.49a17,17,0,0,0,.27,3A1.88,1.88,0,0,0,2.12,66ZM58.3,52.44h0a12.1,12.1,0,0,1,3.76,9v.81H36.48v-.81A12.86,12.86,0,0,1,49.26,48.68,12.15,12.15,0,0,1,58.3,52.44ZM45.05,30.61a5.07,5.07,0,0,1,1.43-1.05l.11-.06a5.48,5.48,0,0,1,2.66-.64h0A5.78,5.78,0,0,1,52.85,30a6,6,0,0,1,.73.63A5.83,5.83,0,0,1,55.37,35a5.64,5.64,0,0,1-.87,3.09,6.44,6.44,0,0,1-.93,1.17A5.79,5.79,0,0,1,49.26,41,5.63,5.63,0,0,1,45,39.21a6.29,6.29,0,0,1-.94-1.2,5.57,5.57,0,0,1-.84-3A5.86,5.86,0,0,1,45.05,30.61ZM29.4,14.12a5.83,5.83,0,0,1-1.79-4.29,5.86,5.86,0,0,1,1.77-4.3,5.84,5.84,0,0,1,4.3-1.78A5.76,5.76,0,0,1,38,5.49a5.93,5.93,0,0,1,1.81,4.34A5.8,5.8,0,0,1,38,14.11a5.77,5.77,0,0,1-4.28,1.75A5.86,5.86,0,0,1,29.4,14.12ZM24.2,28.77l-.44-.54.47-.51.41-.43a12.16,12.16,0,0,1,9-3.76,12,12,0,0,1,8.6,3.37l.6.57-.58.59A9.51,9.51,0,0,0,39.47,35a9.31,9.31,0,0,0,1.39,5,10.62,10.62,0,0,0,4.36,3.95l2.08,1-2.22.56a15.9,15.9,0,0,0-7.47,4.35,16.1,16.1,0,0,0-4,6.12l-.77,2.15-.75-2.16a16.29,16.29,0,0,0-3.91-6.1,16.07,16.07,0,0,0-7.49-4.36l-2.23-.57,2.09-1a9.81,9.81,0,0,0,2.9-2A9.46,9.46,0,0,0,26.36,35,9.59,9.59,0,0,0,24.2,28.77ZM12.26,39.19A5.67,5.67,0,0,1,10.49,35a5.82,5.82,0,0,1,1.81-4.34,5.67,5.67,0,0,1,4.23-1.77A5.75,5.75,0,0,1,20.07,30c.28.23.53.44.78.67A5.92,5.92,0,0,1,22.6,35,5.81,5.81,0,0,1,21.78,38a6.29,6.29,0,0,1-.93,1.17A5.82,5.82,0,0,1,16.53,41,5.65,5.65,0,0,1,12.26,39.19ZM3.75,61.47a12.23,12.23,0,0,1,3.79-9,12,12,0,0,1,9-3.75,12.13,12.13,0,0,1,9,3.74l0,0a12.19,12.19,0,0,1,3.73,9v.81H3.75Z"/></g></g></svg>