<svg xmlns="http://www.w3.org/2000/svg" viewBox="0 0 65.45 65.45"><defs><style>.cls-1{fill-rule:evenodd;}</style></defs><g id="Layer_2" data-name="Layer 2"><g id="Layer_1-2" data-name="Layer 1"><path class="cls-1" d="M34.13,17.48a14.76,14.76,0,0,1,3.54.75L40,13.07c-1.08-.76-1.67-1.68-1.38-2.32.39-.86,2.17-.89,4-.08s3,2.17,2.61,3c-.29.65-1.37.83-2.66.53l-2.3,5.15A15.69,15.69,0,0,1,42.51,21l9.43-9.43c-1.09-1.48-1.45-3-.78-3.63.83-.83,2.94-.07,4.7,1.7s2.54,3.87,1.7,4.7c-.66.67-2.15.31-3.63-.77l-9.42,9.42a15.48,15.48,0,0,1,2,3l5.27-2c-.22-1.3,0-2.37.68-2.62.87-.33,2.16.91,2.87,2.77s.58,3.65-.29,4c-.66.25-1.55-.38-2.25-1.5l-5.27,2a16.24,16.24,0,0,1,.5,2.73H61.3c.28-1.81,1.08-3.12,2-3.12,1.17,0,2.12,2,2.12,4.53s-1,4.52-2.12,4.52c-.95,0-1.75-1.3-2-3.11H48a15.29,15.29,0,0,1-.75,3.53L52.38,40c.76-1.08,1.68-1.66,2.33-1.38.85.39.89,2.17.07,4s-2.17,3-3,2.61c-.65-.29-.82-1.36-.53-2.65l-5.15-2.31a16.45,16.45,0,0,1-1.57,2.28l9.42,9.43c1.48-1.09,3-1.45,3.63-.78.84.83.07,2.94-1.7,4.71S52,58.4,51.16,57.56c-.67-.66-.31-2.15.78-3.63l-9.43-9.42a15.26,15.26,0,0,1-3,2l2,5.28c1.3-.23,2.37,0,2.62.67.33.87-.91,2.16-2.77,2.87s-3.65.58-4-.29c-.25-.66.38-1.55,1.5-2.25l-2-5.27a16.24,16.24,0,0,1-2.73.5V61.3c1.81.28,3.12,1.08,3.12,2,0,1.17-2,2.12-4.53,2.12s-4.52-1-4.52-2.12c0-.95,1.31-1.75,3.11-2V48a15.29,15.29,0,0,1-3.53-.75l-2.3,5.15c1.08.76,1.67,1.69,1.38,2.33-.39.85-2.17.89-4,.07s-3-2.16-2.61-3c.29-.64,1.37-.82,2.66-.53l2.3-5.15a15.63,15.63,0,0,1-2.28-1.57l-9.43,9.42c1.09,1.48,1.45,3,.78,3.63-.83.84-2.94.08-4.71-1.69S7.05,52,7.89,51.16c.66-.67,2.15-.31,3.63.78l9.42-9.43a16,16,0,0,1-2-3l-5.28,2c.23,1.3,0,2.37-.67,2.62-.87.33-2.16-.9-2.87-2.77s-.58-3.64.29-4c.66-.25,1.55.39,2.25,1.5l5.27-2a16.31,16.31,0,0,1-.5-2.72H4.15c-.28,1.81-1.08,3.11-2,3.11C1,37.25,0,35.23,0,32.73S1,28.2,2.12,28.2c.95,0,1.75,1.31,2,3.12H17.47a15.37,15.37,0,0,1,.75-3.54l-5.15-2.3c-.76,1.08-1.68,1.67-2.33,1.38-.85-.38-.89-2.17-.07-4s2.17-3,3-2.61c.65.29.82,1.37.53,2.66l5.15,2.3a16.45,16.45,0,0,1,1.57-2.28l-9.42-9.42c-1.48,1.08-3,1.44-3.63.77-.84-.83-.07-2.94,1.69-4.7s3.88-2.53,4.71-1.7c.67.67.31,2.15-.78,3.63L22.94,21a15.53,15.53,0,0,1,3-2l-2-5.27c-1.3.22-2.37,0-2.62-.67-.33-.88.91-2.17,2.77-2.88s3.65-.58,4,.3c.25.65-.38,1.54-1.5,2.24l2,5.28a14.5,14.5,0,0,1,2.72-.5V4.15c-1.8-.28-3.11-1.08-3.11-2C28.2,1,30.22,0,32.72,0s4.53,1,4.53,2.13c0,.94-1.31,1.74-3.12,2V17.48Z"/></g></g></svg>