<svg xmlns="http://www.w3.org/2000/svg" viewBox="0 0 79.97 64.91"><defs><style>.cls-1{fill:#fcb01f;}</style></defs><g id="Layer_2" data-name="Layer 2"><g id="Layer_1-2" data-name="Layer 1"><path class="cls-1" d="M50.21,1.18A1.8,1.8,0,0,0,49,.06a1.78,1.78,0,0,0-1.64.39l-39,34-6.63.28A1.81,1.81,0,0,0,.11,37.13L6.55,54.41a1.77,1.77,0,0,0,1.21,1.11,1.61,1.61,0,0,0,.49.07,1.78,1.78,0,0,0,1.12-.39l5.2-4.12h3.51l3.62,9.72a6.27,6.27,0,0,0,8.09,3.7L47,58.12a6.3,6.3,0,0,0,4-6.91l15.29.06h0a1.81,1.81,0,0,0,1.81-1.81,1.84,1.84,0,0,0-.22-.87ZM9.07,50.82,4.37,38.2l3.47-.15,2,5.31,2,5.31ZM47.2,53.34a2.65,2.65,0,0,1-1.51,1.39l-17.16,6.4a2.68,2.68,0,0,1-3.44-1.58l-3.15-8.44,25.29.09,0,.09A2.7,2.7,0,0,1,47.2,53.34Zm-32-5.88-4-10.73L41.43,10.38l8.11,21.77a1.81,1.81,0,0,0,3.39-1.26l-8.59-23,3.39-2.95L63.66,47.65Zm48.28-24.1a1.83,1.83,0,0,0,1.7,1.18,1.74,1.74,0,0,0,.63-.11l10.07-3.75a1.81,1.81,0,1,0-1.26-3.39L64.55,21A1.8,1.8,0,0,0,63.48,23.36ZM59.77,12.67a1.82,1.82,0,0,0,1.13.4,1.78,1.78,0,0,0,1.41-.68l5.54-6.91A1.81,1.81,0,0,0,65,3.22l-5.54,6.91A1.81,1.81,0,0,0,59.77,12.67ZM78.49,34l-8.71-1.6A1.81,1.81,0,1,0,69.12,36l8.71,1.61.33,0A1.81,1.81,0,0,0,78.49,34Z"/></g></g></svg>