<svg xmlns="http://www.w3.org/2000/svg" viewBox="0 0 100 100"><defs><style>.cls-1{fill:#fcb01f;}</style></defs><title>sad-face</title><g id="Layer_2" data-name="Layer 2"><g id="Layer_1-2" data-name="Layer 1"><path class="cls-1" d="M50,100a50,50,0,1,1,50-50h0A50.06,50.06,0,0,1,50,100ZM50,4A46,46,0,1,0,96,50,46,46,0,0,0,50,4Z"/><path class="cls-1" d="M73.91,47.79A2,2,0,0,0,71.76,49a5.74,5.74,0,0,1-10.93-1.82,2,2,0,0,0-1.66-1.8h0A2,2,0,0,0,56.86,47a2,2,0,0,0,0,.54,9.74,9.74,0,0,0,18.54,3.08,2,2,0,0,0-1-2.68A2,2,0,0,0,73.91,47.79Z"/><path class="cls-1" d="M40.83,45.34h0a2,2,0,0,0-1.66,1.8A5.74,5.74,0,0,1,28.24,49a2,2,0,1,0-3.66,1.61l0,.06a9.74,9.74,0,0,0,18.54-3.08,2,2,0,0,0-1.78-2.22A2,2,0,0,0,40.83,45.34Z"/><path class="cls-1" d="M64.92,75.21h0a2,2,0,0,0-1.27-1.87,35.76,35.76,0,0,0-27.3,0,2,2,0,0,0-1.26,1.87h0a2,2,0,0,0,2,2,2,2,0,0,0,.76-.15,31.45,31.45,0,0,1,24.28,0A2,2,0,0,0,64.76,76,2.08,2.08,0,0,0,64.92,75.21Z"/></g></g></svg>